<?xml version="1.0" encoding="UTF-8"?>
<svg id="Layer_2" data-name="Layer 2" xmlns="http://www.w3.org/2000/svg" viewBox="0 0 584.27 671.05">
  <g id="Layer_1-2" data-name="Layer 1">
    <g>
      <path d="M307.38,326.24c2.56-2.56,3.84-5.65,3.84-9.27s-1.28-6.72-3.84-9.27-5.65-3.84-9.27-3.84h-13.11c-3.62,0-6.72,1.28-9.28,3.84s-3.84,5.65-3.84,9.27,1.28,6.72,3.84,9.27,5.65,3.84,9.28,3.84h13.11c3.62,0,6.72-1.28,9.27-3.84Z"/>
      <path d="M583.06,254.87l-269.1-1.02,135.76-135.76L333.06,0,0,331.64l339.42,339.41,114.28-114.95c.13-.45-1.11-2.31-1.5-2.78l-136.12-136.12,267.63-.37c.05-45.41-.04-91-.04-136.46,0-3.59,1.69-24.59-.61-25.5ZM370.8,264.57h13.11v13.11h-13.11v-13.11ZM344.58,264.57h13.11v13.11h-13.11v-13.11ZM132.59,366.15c1.26,2.22,3.17,3.33,5.72,3.33h32.24v12.98h-66.84l41.13-68.76c1.32-2.17,1.35-4.38.1-6.62-1.26-2.24-3.17-3.36-5.72-3.36h-32.17v-12.98h66.78l-41.13,68.83c-1.32,2.17-1.35,4.37-.1,6.59ZM246.31,348.43c0,5.93-.85,11.18-2.56,15.77-1.71,4.58-4.08,8.27-7.13,11.07-3.05,2.79-6.57,4.9-10.55,6.33-3.99,1.43-8.39,2.14-13.21,2.14s-9.22-.71-13.21-2.14c-3.99-1.43-7.51-3.54-10.55-6.33-3.05-2.79-5.42-6.48-7.1-11.07-1.68-4.58-2.53-9.84-2.53-15.77v-57.7h13.11v57.7c0,7.21,1.74,12.83,5.21,16.85,3.47,4.03,8.5,6.04,15.06,6.04s11.6-2.02,15.1-6.08c3.5-4.05,5.25-9.66,5.25-16.82v-57.7h13.11v57.7ZM295.99,354.19l28.27,28.27h-18.55l-22.58-22.52c-1.02-1.02-2.21-1.65-3.55-1.89-1.34-.23-2.57-.12-3.68.35-1.11.47-2.06,1.25-2.85,2.33-.79,1.09-1.18,2.33-1.18,3.74v17.97h-13.11v-91.73h39.34c7.21,0,13.37,2.58,18.49,7.74,5.12,5.16,7.68,11.36,7.68,18.61,0,6.78-2.33,12.66-6.97,17.62-4.65,4.97-10.34,7.75-17.08,8.35-1.83.17-3.34.87-4.51,2.11-1.17,1.24-1.76,2.71-1.76,4.41s.68,3.24,2.05,4.61ZM397.67,348.43c0,5.93-.85,11.18-2.56,15.77-1.71,4.58-4.08,8.27-7.13,11.07-3.05,2.79-6.57,4.9-10.55,6.33-3.99,1.43-8.39,2.14-13.21,2.14s-9.22-.71-13.21-2.14c-3.99-1.43-7.51-3.54-10.55-6.33-3.05-2.79-5.42-6.48-7.1-11.07-1.68-4.58-2.53-9.84-2.53-15.77v-57.7h13.11v57.7c0,7.21,1.74,12.83,5.21,16.85,3.47,4.03,8.5,6.04,15.06,6.04s11.6-2.02,15.1-6.08c3.5-4.05,5.25-9.66,5.25-16.82v-57.7h13.11v57.7ZM427.48,361.96c4.65,6.25,10.83,9.37,18.55,9.37,5.25,0,9.6-1.22,13.08-3.65,3.47-2.43,5.83-5.59,7.07-9.47h14.46c-1.66,7.42-5.49,13.53-11.48,18.33-5.99,4.8-13.7,7.2-23.12,7.2-5.33,0-10.32-.95-14.97-2.85-4.65-1.9-8.81-4.71-12.47-8.44-3.67-3.73-6.56-8.67-8.67-14.81-2.11-6.14-3.17-13.15-3.17-21.04s1.06-14.9,3.17-21.04c2.11-6.14,5-11.08,8.67-14.81,3.67-3.73,7.82-6.55,12.47-8.44,4.65-1.9,9.64-2.85,14.97-2.85,9.42,0,17.13,2.4,23.12,7.2,5.99,4.8,9.82,10.91,11.48,18.33h-14.46c-1.24-3.88-3.59-7.04-7.07-9.47-3.48-2.43-7.84-3.65-13.08-3.65-7.72,0-13.9,3.12-18.55,9.37-4.65,6.25-6.97,14.7-6.97,25.36s2.32,19.12,6.97,25.36ZM522.93,345.94l36.52,36.52h-18.55l-28.21-28.14c-1.24-1.24-2.76-1.85-4.57-1.85s-3.34.62-4.57,1.85c-1.32,1.32-1.98,2.88-1.98,4.67v23.48h-13.11v-91.73h13.11v23.48c0,1.83.66,3.41,1.98,4.73,1.24,1.24,2.76,1.85,4.57,1.85s3.34-.62,4.57-1.85l28.21-28.21h18.55l-36.52,36.59c-2.56,2.56-3.84,5.66-3.84,9.31s1.28,6.75,3.84,9.31Z"/>
    </g>
  </g>
</svg>